<?xml version="1.0" encoding="UTF-8"?>
<svg id="Layer_1" data-name="Layer 1" xmlns="http://www.w3.org/2000/svg" viewBox="0 0 92.72 58.51" width='96px' height='96px'>
  <defs>
    <style>
      .cls-1 {
      fill: #164466;
      stroke-width: 0px;
      }
    </style>
  </defs>
  <path class="cls-1" d="M.67,58.5c-1.39-13.41-1.99-16.51,12.84-21.91,12.67-4.62,25.18-3.55,37.24,2.24,7.35,3.53,9.99,9.43,7.84,17.18-.29,1.05-2.11,2.38-3.23,2.38-18.12.15-36.24.11-54.68.11Z"/>
  <path class="cls-1" d="M61.78,34.16c9.13-.14,17.5,1.47,25.28,5.79,7.8,4.33,5.22,11.39,5.35,18.22h-23.84c-.41-8.47.72-17.37-6.8-24.01Z"/>
  <path class="cls-1" d="M29.53,0c7.07.06,12,4.97,12.02,11.96.02,6.99-5.51,12.54-12.4,12.43-6.87-.11-12.21-5.79-12.03-12.81C17.29,4.67,22.35-.06,29.53,0Z"/>
  <path class="cls-1" d="M63.52,0c7.13,0,12.08,4.81,12.18,11.81.1,7-5.35,12.61-12.24,12.59-6.87-.02-12.3-5.65-12.19-12.65C51.38,4.8,56.39,0,63.52,0Z"/>
</svg>