<svg xmlns="http://www.w3.org/2000/svg" viewBox="0 0 300 50"><defs><style>.cls-1{fill:none;}.cls-2{fill:#ee4132;}.cls-3{fill:#f9a33f;}</style></defs><g id="Layer_2" data-name="Layer 2"><g id="Layer_1-2" data-name="Layer 1"><rect class="cls-1" width="300" height="50"/><path class="cls-2" d="M69.25,19.76h1.36v7.31H69.25Z"/><path class="cls-2" d="M73.62,19.76H75v7.31H73.62Z"/><path class="cls-2" d="M79.48,20.91H77.06V19.76h6.2v1.15H80.84v6.16H79.48Z"/><path class="cls-2" d="M95.74,19.76v7.31H94.39V23.94H90.61v3.13H89.25V19.76h1.36v3h3.78v-3Z"/><path class="cls-2" d="M101.9,24.49v2.58h-1.36V24.51l-2.87-4.75h1.45l2.14,3.56,2.17-3.56h1.33Z"/><path class="cls-2" d="M106.59,19.76h3.19c2.37,0,4,1.46,4,3.66s-1.62,3.65-4,3.65h-3.19Zm3.13,6.16a2.51,2.51,0,1,0,0-5h-1.78v5Z"/><path class="cls-2" d="M121.73,25.93v1.14h-5.48V19.76h5.34V20.9h-4v1.9h3.53v1.12h-3.53v2Z"/><path class="cls-2" d="M129.07,27.07l-1.49-2.14h-1.93v2.13h-1.36V19.76h3c1.92,0,3.11,1,3.11,2.6a2.35,2.35,0,0,1-1.56,2.31l1.68,2.4Zm-1.84-6.16h-1.58v2.91h1.58c1.19,0,1.81-.54,1.81-1.46S128.42,20.91,127.23,20.91Z"/><path class="cls-2" d="M137.7,25.38h-3.65l-.72,1.69h-1.4l3.29-7.31h1.34l3.29,7.31h-1.42Zm-.45-1.07-1.37-3.19-1.37,3.19Z"/><path class="cls-2" d="M148.32,25.09c0,1.25-1,2-2.86,2h-3.63V19.76h3.42c1.75,0,2.69.74,2.69,1.9a1.74,1.74,0,0,1-.94,1.61A1.8,1.8,0,0,1,148.32,25.09Zm-5.14-4.26v2h1.92c.94,0,1.48-.33,1.48-1s-.54-1-1.48-1ZM147,25c0-.73-.55-1.05-1.57-1.05h-2.2V26h2.2C146.4,26,147,25.68,147,25Z"/><path class="cls-2" d="M155.55,25.38H151.9l-.72,1.69h-1.4l3.29-7.31h1.33l3.3,7.31h-1.42Zm-.45-1.07-1.37-3.19-1.37,3.19Z"/><path class="cls-2" d="M159.68,19.76h3.19c2.37,0,4,1.46,4,3.66s-1.62,3.65-4,3.65h-3.19Zm3.13,6.16a2.51,2.51,0,1,0,0-5H161v5Z"/><path class="cls-2" d="M70.73,33.44H68.31V32.29h6.2v1.15H72.09V39.6H70.73Z"/><path class="cls-2" d="M82.06,38.46V39.6H76.58V32.29h5.33v1.14h-4v1.9h3.52v1.11H77.94v2Z"/><path class="cls-2" d="M84.06,35.94A3.73,3.73,0,0,1,88,32.18a3.68,3.68,0,0,1,2.89,1.23l-.88.82A2.58,2.58,0,0,0,88,33.37,2.57,2.57,0,1,0,90,37.64l.88.84a4,4,0,0,1-6.81-2.54Z"/><path class="cls-2" d="M99.71,32.29V39.6H98.35V36.46H94.57V39.6H93.22V32.29h1.35v3h3.78v-3Z"/><path class="cls-2" d="M109.21,32.29V39.6h-1.12l-4-5v5h-1.34V32.29h1.11l4,5v-5Z"/><path class="cls-2" d="M111.69,35.94a3.94,3.94,0,1,1,3.94,3.76A3.74,3.74,0,0,1,111.69,35.94Zm6.51,0a2.57,2.57,0,1,0-2.57,2.57A2.5,2.5,0,0,0,118.2,35.94Z"/><path class="cls-2" d="M122.05,32.29h1.35v6.16h3.82V39.6h-5.17Z"/><path class="cls-2" d="M128.69,35.94a3.94,3.94,0,1,1,3.93,3.76A3.74,3.74,0,0,1,128.69,35.94Zm6.5,0a2.57,2.57,0,1,0-2.57,2.57A2.5,2.5,0,0,0,135.19,35.94Z"/><path class="cls-2" d="M144,35.86h1.28v2.91a4.58,4.58,0,0,1-2.86.93,3.76,3.76,0,1,1,0-7.52,3.79,3.79,0,0,1,2.94,1.19l-.86.84a2.72,2.72,0,0,0-2-.84,2.57,2.57,0,1,0,0,5.14,2.87,2.87,0,0,0,1.5-.38Z"/><path class="cls-2" d="M151.29,37V39.6h-1.35V37l-2.87-4.75h1.45l2.14,3.56,2.16-3.56h1.33Z"/><path class="cls-2" d="M160,32.29h1.36V39.6H160Z"/><path class="cls-2" d="M170.88,32.29V39.6h-1.12l-4-5v5h-1.35V32.29h1.12l4,5v-5Z"/><path class="cls-2" d="M173.36,35.94a4,4,0,0,1,6.81-2.53l-.88.82a2.58,2.58,0,0,0-1.95-.86,2.57,2.57,0,1,0,0,5.14,2.52,2.52,0,0,0,1.95-.87l.88.84a4,4,0,0,1-6.81-2.54Z"/><path class="cls-2" d="M182.4,36.41V32.29h1.36v4.07c0,1.5.67,2.15,1.85,2.15s1.85-.65,1.85-2.15V32.29h1.34v4.12a3.2,3.2,0,1,1-6.4,0Z"/><path class="cls-2" d="M198.23,37.61c0,1.26-1,2-2.86,2h-3.63V32.29h3.43c1.75,0,2.69.74,2.69,1.9a1.77,1.77,0,0,1-.94,1.61A1.79,1.79,0,0,1,198.23,37.61Zm-5.13-4.26v2H195c.94,0,1.47-.34,1.47-1s-.53-1-1.47-1Zm3.77,4.13c0-.73-.56-1.06-1.58-1.06H193.1v2.11h2.19C196.31,38.53,196.87,38.21,196.87,37.48Z"/><path class="cls-2" d="M205.47,37.9h-3.66l-.72,1.7h-1.4L203,32.29h1.34l3.3,7.31H206.2ZM205,36.84l-1.38-3.19-1.37,3.19Z"/><path class="cls-2" d="M210.71,33.44h-2.42V32.29h6.2v1.15h-2.43V39.6h-1.35Z"/><path class="cls-2" d="M216.55,32.29h1.36V39.6h-1.36Z"/><path class="cls-2" d="M220.4,35.94a3.94,3.94,0,1,1,3.94,3.76A3.74,3.74,0,0,1,220.4,35.94Zm6.51,0a2.57,2.57,0,1,0-2.57,2.57A2.5,2.5,0,0,0,226.91,35.94Z"/><path class="cls-2" d="M237.25,32.29V39.6h-1.12l-4-5v5h-1.34V32.29h1.12l4,5v-5Z"/><path class="cls-2" d="M243.66,35.94a4,4,0,0,1,6.81-2.53l-.88.82a2.58,2.58,0,0,0-2-.86,2.57,2.57,0,1,0,0,5.14,2.52,2.52,0,0,0,2-.87l.88.84a4,4,0,0,1-6.81-2.54Z"/><path class="cls-2" d="M258.29,38.46V39.6h-5.48V32.29h5.34v1.14h-4v1.9h3.53v1.11h-3.53v2Z"/><path class="cls-2" d="M267.34,32.29V39.6h-1.11l-4-5v5h-1.35V32.29H262l4,5v-5Z"/><path class="cls-2" d="M271.83,33.44h-2.42V32.29h6.2v1.15h-2.42V39.6h-1.36Z"/><path class="cls-2" d="M283.16,38.46V39.6h-5.48V32.29H283v1.14h-4v1.9h3.53v1.11H279v2Z"/><path class="cls-2" d="M290.5,39.6,289,37.46h-1.93V39.6h-1.36V32.29h3c1.92,0,3.11,1,3.11,2.6a2.33,2.33,0,0,1-1.55,2.3L292,39.6Zm-1.84-6.16h-1.59v2.91h1.59c1.19,0,1.8-.54,1.8-1.46S289.85,33.44,288.66,33.44Z"/><path class="cls-3" d="M8.07,19.77V38.91h3.71V19.77Z"/><path class="cls-2" d="M7.39,19.05V39.63h.68V19.05Zm4.39,0V39.63h.68V19.05Z"/><path class="cls-2" d="M11.73,15.77H8.11a.44.44,0,0,1-.39-.65l1.81-3.53a.45.45,0,0,1,.79,0l1.81,3.53A.45.45,0,0,1,11.73,15.77Z"/><path class="cls-2" d="M37.75,11.76a2.4,2.4,0,0,0-3.37,0,2.43,2.43,0,0,0-.54,1.54,2.52,2.52,0,0,0,.54,1.55,2.43,2.43,0,0,0,3.37,0,2.45,2.45,0,0,0,0-3.07Z"/><polygon class="cls-2" points="38.25 19.05 38.25 39.21 34.55 39.21 34.55 22.58 31.19 22.58 33 19.05 38.25 19.05"/><path class="cls-2" d="M56.29,34.8,57.9,38a10.23,10.23,0,0,1-5.73,1.68,9.78,9.78,0,0,1-7.48-3,10.56,10.56,0,0,1-2.81-7.5,10.29,10.29,0,0,1,3-7.45,9.83,9.83,0,0,1,7.33-3.05A10.17,10.17,0,0,1,58,20.35L56.33,23.5a6.7,6.7,0,0,0-4.16-1.34,5.87,5.87,0,0,0-4.6,1.91,7.34,7.34,0,0,0-1.7,5.06,7.34,7.34,0,0,0,1.7,5.06,5.84,5.84,0,0,0,4.6,1.91A6.52,6.52,0,0,0,56.29,34.8Z"/><path class="cls-2" d="M23.13,22.58v8.65a5.5,5.5,0,0,0,.48,2.44A2.74,2.74,0,0,0,25,35a7.14,7.14,0,0,0,1.74.53,14.52,14.52,0,0,0,2,.12v3.53c-3.22,0-5.6-.61-7.14-1.85s-2.31-3.27-2.31-6.13V22.58H17.16l6-9v5.49H28.8v3.53Z"/></g></g></svg>