<svg xmlns="http://www.w3.org/2000/svg" viewBox="0 0 70 40"><defs><style>.cls-1{fill:none;}.cls-2{fill:#f9a33f;}.cls-3{fill:#fff;}</style></defs><g id="Layer_2" data-name="Layer 2"><g id="Layer_1-2" data-name="Layer 1"><rect class="cls-1" width="70" height="40"/><path class="cls-2" d="M3.16,12.78V37.56H8V12.78Z"/><path class="cls-3" d="M2.27,11.84V38.49h.89V11.84Zm5.69,0V38.49h.88V11.84Z"/><path class="cls-3" d="M7.9,7.6H3.21a.58.58,0,0,1-.51-.84L5.05,2.19a.57.57,0,0,1,1,0L8.41,6.76A.58.58,0,0,1,7.9,7.6Z"/><path class="cls-3" d="M41.57,2.41a2.58,2.58,0,0,0-2.17-.9,2.6,2.6,0,0,0-2.18.9,3.13,3.13,0,0,0-.7,2,3.26,3.26,0,0,0,.7,2,2.64,2.64,0,0,0,2.18.87,2.58,2.58,0,0,0,2.17-.9,3.13,3.13,0,0,0,0-4Z"/><polygon class="cls-3" points="42.23 11.84 42.23 37.94 37.44 37.94 37.44 16.41 33.08 16.41 35.43 11.84 42.23 11.84"/><path class="cls-3" d="M65.58,32.24l2.09,4.07a13.28,13.28,0,0,1-7.42,2.18,12.66,12.66,0,0,1-9.68-3.89,13.64,13.64,0,0,1-3.64-9.71,13.35,13.35,0,0,1,3.83-9.65,12.71,12.71,0,0,1,9.49-3.94,13.15,13.15,0,0,1,7.48,2.23l-2.1,4.08a8.61,8.61,0,0,0-5.38-1.74,7.55,7.55,0,0,0-6,2.47,9.49,9.49,0,0,0-2.21,6.55,9.5,9.5,0,0,0,2.21,6.56,7.55,7.55,0,0,0,6,2.47A8.46,8.46,0,0,0,65.58,32.24Z"/><path class="cls-3" d="M22.65,16.41v11.2a7,7,0,0,0,.63,3.16,3.54,3.54,0,0,0,1.82,1.76,9.06,9.06,0,0,0,2.25.68,17.59,17.59,0,0,0,2.64.17v4.56c-4.17,0-7.25-.79-9.24-2.39s-3-4.24-3-7.94V16.41H14.93L22.65,4.74v7.1H30v4.57Z"/></g></g></svg>